<svg id="Grupo_793" data-name="Grupo 793" xmlns="http://www.w3.org/2000/svg" width="26" height="26" viewBox="0 0 26 26">
  <g id="Iconly_Bulk_Home" data-name="Iconly/Bulk/Home">
    <g id="Home" transform="translate(2.708 2.167)">
      <path id="Home-2" data-name="Home" d="M7.2,20.347V17.025A1.537,1.537,0,0,1,8.73,15.494h3.114a1.537,1.537,0,0,1,1.542,1.531h0v3.313a1.334,1.334,0,0,0,1.329,1.329h2.124a3.748,3.748,0,0,0,2.647-1.083,3.694,3.694,0,0,0,1.1-2.625V8.521a2.679,2.679,0,0,0-.97-2.061L12.4.73A3.375,3.375,0,0,0,8.109.807L1.048,6.46A2.68,2.68,0,0,0,0,8.521v9.428a3.731,3.731,0,0,0,3.744,3.717H5.82a1.334,1.334,0,0,0,.946-.383,1.315,1.315,0,0,0,.393-.936Z" transform="translate(0 0)" fill="#0d0a1e"/>
    </g>
  </g>
</svg>
