<svg xmlns="http://www.w3.org/2000/svg" width="119" height="45" viewBox="0 0 119 45">
  <g id="Grupo_795" data-name="Grupo 795" transform="translate(404 638)">
    <text id="m" transform="translate(-387 -604)" fill="#0e0b1e" font-size="32" font-family="Poppins-Bold, Poppins" font-weight="700" letter-spacing="0.034em"><tspan x="-16.944" y="0">m</tspan></text>
    <g id="Grupo_779" data-name="Grupo 779" transform="translate(-368.002 -624.461)">
      <path id="Fill_4" data-name="Fill 4" d="M21.144,12.1a3.482,3.482,0,0,1-.721,2.143,11.661,11.661,0,0,1-.841.94l-.18.176c-2.523,2.675-8.8,6.7-11.984,7.986a10.5,10.5,0,0,1-2.793.822h-.12a3.789,3.789,0,0,1-3.334-1.994A16.5,16.5,0,0,1,.451,19.5,53.25,53.25,0,0,1,0,12.068,45.952,45.952,0,0,1,.511,4.4a19.276,19.276,0,0,1,.541-2.143A3.853,3.853,0,0,1,2.733.44,4.3,4.3,0,0,1,4.625,0,10.4,10.4,0,0,1,7.118.675a45.986,45.986,0,0,1,12.254,8.1c.42.411.871.913.991,1.028a3.654,3.654,0,0,1,.781,2.29" fill="#ff2d55" opacity="0.33"/>
      <path id="Fill_4-2" data-name="Fill 4" d="M10.246,5.862A1.687,1.687,0,0,1,9.9,6.9a5.651,5.651,0,0,1-.407.455L9.4,7.441a22.178,22.178,0,0,1-5.807,3.87,5.086,5.086,0,0,1-1.353.4H2.183a1.836,1.836,0,0,1-1.615-.966A8,8,0,0,1,.218,9.449,25.8,25.8,0,0,1,0,5.848,22.267,22.267,0,0,1,.247,2.134,9.34,9.34,0,0,1,.509,1.1,1.867,1.867,0,0,1,1.324.213,2.081,2.081,0,0,1,2.241,0,5.039,5.039,0,0,1,3.449.327,22.283,22.283,0,0,1,9.387,4.254c.2.2.422.442.48.5a1.771,1.771,0,0,1,.378,1.11" transform="translate(4.378 6.129)" fill="#ff2d55"/>
    </g>
    <text id="ska" transform="translate(-316 -604)" fill="#0e0b1e" font-size="32" font-family="Poppins-Bold, Poppins" font-weight="700" letter-spacing="0.034em"><tspan x="-30.763" y="0">ska</tspan></text>
  </g>
</svg>
