<svg xmlns="http://www.w3.org/2000/svg"
  xmlns:xlink="http://www.w3.org/1999/xlink" width="0" height="62.598" viewBox="0 0 172.773 184.598">
  <defs>
    <filter id="Fill_4" x="0" y="0" width="162.773" height="174.598" filterUnits="userSpaceOnUse">
      <feOffset dy="15" input="SourceAlpha"/>
      <feGaussianBlur stdDeviation="15" result="blur"/>
      <feFlood flood-opacity="0.569"/>
      <feComposite operator="in" in2="blur"/>
      <feComposite in="SourceGraphic"/>
    </filter>
  </defs>
  <g id="Grupo_791" data-name="Grupo 791" transform="translate(45 30)">
    <g transform="matrix(1, 0, 0, 1, -45, -30)" filter="url(#Fill_4)">
      <path id="Fill_4-2" data-name="Fill 4" d="M82.773,47.356a13.63,13.63,0,0,1-2.822,8.391,45.651,45.651,0,0,1-3.292,3.678l-.705.69C66.077,70.586,41.5,86.333,29.041,91.379c0,.115-7.407,3.115-10.935,3.218h-.47a14.833,14.833,0,0,1-13.051-7.8c-1.411-2.655-2.7-10.356-2.822-10.46A208.457,208.457,0,0,1,0,47.241c0-12.172.705-23.218,2-30A75.459,75.459,0,0,1,4.115,8.851,15.082,15.082,0,0,1,10.7,1.724,16.815,16.815,0,0,1,18.107,0c2.7.126,7.76,1.839,9.759,2.644C41.034,7.7,66.195,24.253,75.836,34.368c1.646,1.609,3.41,3.575,3.88,4.023a14.3,14.3,0,0,1,3.057,8.966" transform="translate(45 30)" fill="#ff2d55" opacity="0.33"/>
    </g>
    <path id="Fill_4-3" data-name="Fill 4" d="M40.109,22.947a6.6,6.6,0,0,1-1.367,4.066,22.122,22.122,0,0,1-1.6,1.782l-.342.334c-4.786,5.074-16.693,12.7-22.732,15.149a19.909,19.909,0,0,1-5.3,1.56H8.546a7.188,7.188,0,0,1-6.324-3.782A31.3,31.3,0,0,1,.855,36.988,101.01,101.01,0,0,1,0,22.891,87.167,87.167,0,0,1,.969,8.354,36.565,36.565,0,0,1,1.994,4.289,7.308,7.308,0,0,1,5.184.835,8.148,8.148,0,0,1,8.774,0,19.728,19.728,0,0,1,13.5,1.281c6.381,2.451,18.573,10.471,23.245,15.372.8.78,1.652,1.732,1.88,1.949a6.931,6.931,0,0,1,1.481,4.344" transform="translate(17.138 23.994)" fill="#ff2d55"/>
  </g>
</svg>
