<svg xmlns="http://www.w3.org/2000/svg" width="24" height="27.429" viewBox="0 0 24 27.429">
  <g id="Grupo_794" data-name="Grupo 794" transform="translate(580.081 -1068)">
    <g id="Grupo_792" data-name="Grupo 792" transform="translate(-580.081 1068)">
      <path id="Fill_4" data-name="Fill 4" d="M24,13.731a3.952,3.952,0,0,1-.818,2.433,13.237,13.237,0,0,1-.955,1.066l-.2.2c-2.864,3.036-9.989,7.6-13.6,9.065a11.913,11.913,0,0,1-3.17.933H5.114A4.3,4.3,0,0,1,1.33,25.166a18.727,18.727,0,0,1-.818-3.033A60.442,60.442,0,0,1,0,13.7,52.159,52.159,0,0,1,.58,5a21.879,21.879,0,0,1,.614-2.433A4.373,4.373,0,0,1,3.1.5,4.876,4.876,0,0,1,5.25,0,11.8,11.8,0,0,1,8.08.767a52.2,52.2,0,0,1,13.909,9.2c.477.467.989,1.036,1.125,1.166a4.147,4.147,0,0,1,.886,2.6" fill="#9e9da5"/>
      <path id="Fill_4-2" data-name="Fill 4" d="M11.629,6.653a1.915,1.915,0,0,1-.4,1.179,6.414,6.414,0,0,1-.463.517l-.1.1A25.174,25.174,0,0,1,4.08,12.839a5.773,5.773,0,0,1-1.536.452H2.478a2.084,2.084,0,0,1-1.834-1.1,9.074,9.074,0,0,1-.4-1.47A29.288,29.288,0,0,1,0,6.637,25.274,25.274,0,0,1,.281,2.422a10.6,10.6,0,0,1,.3-1.179,2.119,2.119,0,0,1,.925-1A2.363,2.363,0,0,1,2.544,0,5.72,5.72,0,0,1,3.915.371a25.292,25.292,0,0,1,6.74,4.457c.231.226.479.5.545.565a2.01,2.01,0,0,1,.429,1.26" transform="translate(4.969 6.957)" fill="#0d0a1e"/>
    </g>
  </g>
</svg>
